<svg xmlns="http://www.w3.org/2000/svg" width="611.9506225585938" height="566.4680786132812" viewBox="-179.5500946044922 -194.7220458984375 611.9506225585938 566.4680786132812"><title>Neo4j Graph Visualization</title><desc>Created using Neo4j (http://www.neo4j.com/)</desc><g class="layer relationships"><g class="relationship" transform="translate(134.08031997211086 158.62053524117442) rotate(345.553040430043)"><path class="outline" fill="#A5ABB6" stroke="none" d="M 24.018736134675446,-6.953439040707552 L 24.277555179777966,-5.987513214418485 A 141.50707178128386 141.50707178128386 0 0 1 33.76995545794229,-8.183740141179726 L 33.578217161233994,-9.165186230160373 A 142.50707178128386 142.50707178128386 0 0 0 24.018736134675446,-6.953439040707552 Z M 84.37038193786745,-9.863601265945903 L 84.20570167834725,-8.877254262034825 A 141.50707178128386 141.50707178128386 0 0 1 93.75489987916716,-6.942857850700504 L 93.05841271936328,-4.024826727455187 L 100.6797203600402,-5.8040596650323355 L 94.68354942557232,-10.833566015027593 L 93.98706226576844,-7.915534891782276 A 142.50707178128386 142.50707178128386 0 0 0 84.37038193786745,-9.863601265945903"/><text text-anchor="middle" pointer-events="none" font-size="8px" fill="#000000" x="58.949804048097455" y="-8.295826681696724" font-family="sans-serif">CONNECTS</text></g><g class="relationship" transform="translate(255.12444863146658 127.43591523202275) rotate(290.2983196534767)"><path class="outline" fill="#A5ABB6" stroke="none" d="M 24.018736134675446,-6.953439040707552 L 24.277555179777966,-5.987513214418485 A 143.71628487127597 143.71628487127597 0 0 1 34.32170315258399,-8.296267868307467 L 34.13277283290881,-9.27825836434468 A 144.71628487127597 144.71628487127597 0 0 0 24.018736134675446,-6.953439040707552 Z M 84.93056896630937,-9.97088767775827 L 84.76848283902017,-8.984111063047322 A 143.71628487127597 143.71628487127597 0 0 1 94.87184497182345,-6.950068250097191 L 94.17468434999356,-4.032197953567586 L 101.79640243403084,-5.809671848582389 L 95.80139246759663,-10.840561978803331 L 95.10423184576673,-7.922691682273726 A 144.71628487127597 144.71628487127597 0 0 0 84.93056896630937,-9.97088767775827"/><text text-anchor="middle" pointer-events="none" font-size="8px" fill="#000000" x="59.507856646108436" y="-8.37112282910573" font-family="sans-serif">CONNECTS</text></g><g class="relationship" transform="translate(298.8737245854669 9.15559383004895) rotate(470.2983196534767)"><path class="outline" fill="#A5ABB6" stroke="none" d="M 24.018736134675446,-6.953439040707552 L 24.277555179777966,-5.987513214418485 A 143.71628487127597 143.71628487127597 0 0 1 34.32170315258399,-8.296267868307467 L 34.13277283290881,-9.27825836434468 A 144.71628487127597 144.71628487127597 0 0 0 24.018736134675446,-6.953439040707552 Z M 84.93056896630937,-9.97088767775827 L 84.76848283902017,-8.984111063047322 A 143.71628487127597 143.71628487127597 0 0 1 94.87184497182345,-6.950068250097191 L 94.17468434999356,-4.032197953567586 L 101.79640243403084,-5.809671848582389 L 95.80139246759663,-10.840561978803331 L 95.10423184576673,-7.922691682273726 A 144.71628487127597 144.71628487127597 0 0 0 84.93056896630937,-9.97088767775827"/><text text-anchor="middle" pointer-events="none" font-size="8px" fill="#000000" x="59.507856646108436" y="-8.37112282910573" transform="rotate(180 59.507856646108436 -11.37112282910573)" font-family="sans-serif">CONNECTS</text></g><g class="relationship" transform="translate(255.12444863146658 127.43591523202275) rotate(428.18141925955035)"><path class="outline" fill="#A5ABB6" stroke="none" d="M 24.018736134675446,-6.953439040707552 L 24.277555179777966,-5.987513214418485 A 121.44464358502775 121.44464358502775 0 0 1 28.78585056650702,-7.103567400259507 L 28.564153746425255,-8.078683044665667 A 122.44464358502775 122.44464358502775 0 0 0 24.018736134675446,-6.953439040707552 Z M 79.2878114105976,-8.834086936983965 L 79.09525035725144,-7.852801942329393 A 121.44464358502775 121.44464358502775 0 0 1 83.63478080221459,-6.871492827428029 L 82.94495937956636,-3.951878742509344 L 90.5621839041329,-5.748511855401933 L 84.55454269907891,-10.764311607319609 L 83.86472127643067,-7.844697522400923 A 122.44464358502775 122.44464358502775 0 0 0 79.2878114105976,-8.834086936983965"/><text text-anchor="middle" pointer-events="none" font-size="8px" fill="#000000" x="53.89387824076568" y="-7.61211843873285" font-family="sans-serif">CONNECTS</text></g><g class="relationship" transform="translate(297.8263460972591 234.097946179686) rotate(248.18141925955035)"><path class="outline" fill="#A5ABB6" stroke="none" d="M 24.018736134675446,-6.953439040707552 L 24.277555179777966,-5.987513214418485 A 121.44464358502775 121.44464358502775 0 0 1 28.78585056650702,-7.103567400259507 L 28.564153746425255,-8.078683044665667 A 122.44464358502775 122.44464358502775 0 0 0 24.018736134675446,-6.953439040707552 Z M 79.2878114105976,-8.834086936983965 L 79.09525035725144,-7.852801942329393 A 121.44464358502775 121.44464358502775 0 0 1 83.63478080221459,-6.871492827428029 L 82.94495937956636,-3.951878742509344 L 90.5621839041329,-5.748511855401933 L 84.55454269907891,-10.764311607319609 L 83.86472127643067,-7.844697522400923 A 122.44464358502775 122.44464358502775 0 0 0 79.2878114105976,-8.834086936983965"/><text text-anchor="middle" pointer-events="none" font-size="8px" fill="#000000" x="53.89387824076568" y="-7.61211843873285" transform="rotate(180 53.89387824076568 -10.61211843873285)" font-family="sans-serif">CONNECTS</text></g><g class="relationship" transform="translate(134.08031997211086 158.62053524117442) rotate(249.01037500473876)"><path class="outline" fill="#A5ABB6" stroke="none" d="M 24.018736134675446,-6.953439040707552 L 24.277555179777966,-5.987513214418485 A 148.20664374497153 148.20664374497153 0 0 1 35.44464873537934,-8.521744934722108 L 35.26117782092349,-9.504770073540385 A 149.20664374497153 149.20664374497153 0 0 0 24.018736134675446,-6.953439040707552 Z M 86.0695406265661,-10.185914656970795 L 85.91248807952994,-9.19832440921141 A 148.20664374497153 148.20664374497153 0 0 1 97.14350472354681,-6.964365136180068 L 96.44500875886068,-4.046814213348181 L 104.06753953760223,-5.820799705717745 L 98.07483267646164,-10.85443303328925 L 97.37633671177551,-7.936882110457364 A 149.20664374497153 149.20664374497153 0 0 0 86.0695406265661,-10.185914656970795"/><text text-anchor="middle" pointer-events="none" font-size="8px" fill="#000000" x="60.64285259629488" y="-8.524170797316117" transform="rotate(180 60.64285259629488 -11.524170797316117)" font-family="sans-serif">CONNECTS</text></g><g class="relationship" transform="translate(88.0945799477641 38.75871803407094) rotate(429.01037500473876)"><path class="outline" fill="#A5ABB6" stroke="none" d="M 24.018736134675446,-6.953439040707552 L 24.277555179777966,-5.987513214418485 A 148.20664374497153 148.20664374497153 0 0 1 35.44464873537934,-8.521744934722108 L 35.26117782092349,-9.504770073540385 A 149.20664374497153 149.20664374497153 0 0 0 24.018736134675446,-6.953439040707552 Z M 86.0695406265661,-10.185914656970795 L 85.91248807952994,-9.19832440921141 A 148.20664374497153 148.20664374497153 0 0 1 97.14350472354681,-6.964365136180068 L 96.44500875886068,-4.046814213348181 L 104.06753953760223,-5.820799705717745 L 98.07483267646164,-10.85443303328925 L 97.37633671177551,-7.936882110457364 A 149.20664374497153 149.20664374497153 0 0 0 86.0695406265661,-10.185914656970795"/><text text-anchor="middle" pointer-events="none" font-size="8px" fill="#000000" x="60.64285259629488" y="-8.524170797316117" font-family="sans-serif">CONNECTS</text></g><g class="relationship" transform="translate(134.08031997211086 158.62053524117442) rotate(510.9195652982423)"><path class="outline" fill="#A5ABB6" stroke="none" d="M 24.018736134675446,-6.953439040707552 L 24.277555179777966,-5.987513214418485 A 143.33700507655095 143.33700507655095 0 0 1 34.226943270443215,-8.277026243859694 L 34.03753678272845,-9.258925007690038 A 144.33700507655095 144.33700507655095 0 0 0 24.018736134675446,-6.953439040707552 Z M 84.83438738760964,-9.952541174845749 L 84.67186160003615,-8.965836878527142 A 143.33700507655095 143.33700507655095 0 0 1 94.68005384302317,-6.948838782824722 L 93.98300805508397,-4.030941051663432 L 101.60465618038938,-5.808714899493442 L 95.60944822694212,-10.839369091039774 L 94.91240243900292,-7.921471359878486 A 144.33700507655095 144.33700507655095 0 0 0 84.83438738760964,-9.952541174845749"/><text text-anchor="middle" pointer-events="none" font-size="8px" fill="#000000" x="59.41203271817582" y="-8.35819581890118" transform="rotate(180 59.41203271817582 -11.35819581890118)" font-family="sans-serif">CONNECTS</text></g><g class="relationship" transform="translate(24.0336048369533 219.82254015753904) rotate(330.9195652982423)"><path class="outline" fill="#A5ABB6" stroke="none" d="M 24.018736134675446,-6.953439040707552 L 24.277555179777966,-5.987513214418485 A 143.33700507655095 143.33700507655095 0 0 1 34.226943270443215,-8.277026243859694 L 34.03753678272845,-9.258925007690038 A 144.33700507655095 144.33700507655095 0 0 0 24.018736134675446,-6.953439040707552 Z M 84.83438738760964,-9.952541174845749 L 84.67186160003615,-8.965836878527142 A 143.33700507655095 143.33700507655095 0 0 1 94.68005384302317,-6.948838782824722 L 93.98300805508397,-4.030941051663432 L 101.60465618038938,-5.808714899493442 L 95.60944822694212,-10.839369091039774 L 94.91240243900292,-7.921471359878486 A 144.33700507655095 144.33700507655095 0 0 0 84.83438738760964,-9.952541174845749"/><text text-anchor="middle" pointer-events="none" font-size="8px" fill="#000000" x="59.41203271817582" y="-8.35819581890118" font-family="sans-serif">CONNECTS</text></g><g class="relationship" transform="translate(255.12444863146658 127.43591523202275) rotate(525.553040430043)"><path class="outline" fill="#A5ABB6" stroke="none" d="M 24.018736134675446,-6.953439040707552 L 24.277555179777966,-5.987513214418485 A 141.50707178128386 141.50707178128386 0 0 1 33.76995545794229,-8.183740141179726 L 33.578217161233994,-9.165186230160373 A 142.50707178128386 142.50707178128386 0 0 0 24.018736134675446,-6.953439040707552 Z M 84.37038193786745,-9.863601265945903 L 84.20570167834725,-8.877254262034825 A 141.50707178128386 141.50707178128386 0 0 1 93.75489987916716,-6.942857850700504 L 93.05841271936328,-4.024826727455187 L 100.6797203600402,-5.8040596650323355 L 94.68354942557232,-10.833566015027593 L 93.98706226576844,-7.915534891782276 A 142.50707178128386 142.50707178128386 0 0 0 84.37038193786745,-9.863601265945903"/><text text-anchor="middle" pointer-events="none" font-size="8px" fill="#000000" x="58.949804048097455" y="-8.295826681696724" transform="rotate(180 58.949804048097455 -11.295826681696724)" font-family="sans-serif">CONNECTS</text></g><g class="relationship" transform="translate(88.0945799477641 38.75871803407094) rotate(237.2834364987741)"><path class="outline" fill="#A5ABB6" stroke="none" d="M 24.018736134675446,-6.953439040707552 L 24.277555179777966,-5.987513214418485 A 139.94666160025167 139.94666160025167 0 0 1 33.3805512050621,-8.103589778803098 L 33.18677834199203,-9.08463619846816 A 140.94666160025167 140.94666160025167 0 0 0 24.018736134675446,-6.953439040707552 Z M 83.97477911051804,-9.787193007355427 L 83.80821707674204,-8.801162029695803 A 139.94666160025167 139.94666160025167 0 0 1 92.9662626606747,-6.93769275297349 L 92.27025793025156,-4.0195465237333226 L 99.89127131730561,-5.800039420192851 L 93.89426896790555,-10.828554391960381 L 93.1982642374824,-7.910408162720213 A 140.94666160025167 140.94666160025167 0 0 0 83.97477911051804,-9.787193007355427"/><text text-anchor="middle" pointer-events="none" font-size="8px" fill="#000000" x="58.555786005659826" y="-8.24264438866058" transform="rotate(180 58.555786005659826 -11.24264438866058)" font-family="sans-serif">CONNECTS</text></g><g class="relationship" transform="translate(20.961571799226636 -65.74522347301703) rotate(417.2834364987741)"><path class="outline" fill="#A5ABB6" stroke="none" d="M 24.018736134675446,-6.953439040707552 L 24.277555179777966,-5.987513214418485 A 139.94666160025167 139.94666160025167 0 0 1 33.3805512050621,-8.103589778803098 L 33.18677834199203,-9.08463619846816 A 140.94666160025167 140.94666160025167 0 0 0 24.018736134675446,-6.953439040707552 Z M 83.97477911051804,-9.787193007355427 L 83.80821707674204,-8.801162029695803 A 139.94666160025167 139.94666160025167 0 0 1 92.9662626606747,-6.93769275297349 L 92.27025793025156,-4.0195465237333226 L 99.89127131730561,-5.800039420192851 L 93.89426896790555,-10.828554391960381 L 93.1982642374824,-7.910408162720213 A 140.94666160025167 140.94666160025167 0 0 0 83.97477911051804,-9.787193007355427"/><text text-anchor="middle" pointer-events="none" font-size="8px" fill="#000000" x="58.555786005659826" y="-8.24264438866058" font-family="sans-serif">CONNECTS</text></g><g class="relationship" transform="translate(24.0336048369533 219.82254015753904) rotate(536.6635560189316)"><path class="outline" fill="#A5ABB6" stroke="none" d="M 24.018736134675446,-6.953439040707552 L 24.277555179777966,-5.987513214418485 A 136.96666279711957 136.96666279711957 0 0 1 32.63762017782646,-7.9489087754865295 L 32.43983835760275,-8.929154842343706 A 137.96666279711957 137.96666279711957 0 0 0 24.018736134675446,-6.953439040707552 Z M 83.2194277450412,-9.639751125597797 L 83.0491526132597,-8.654354566086454 A 136.96666279711957 136.96666279711957 0 0 1 91.46082780238174,-6.9276583474998015 L 90.76576030715674,-4.009288738097726 L 98.3862014735241,-5.792229126875115 L 92.38758446268176,-10.81881782670257 L 91.69251696745675,-7.900448217300494 A 137.96666279711957 137.96666279711957 0 0 0 83.2194277450412,-9.639751125597797"/><text text-anchor="middle" pointer-events="none" font-size="8px" fill="#000000" x="57.803651879669715" y="-8.141081366917916" transform="rotate(180 57.803651879669715 -11.141081366917916)" font-family="sans-serif">CONNECTS</text></g><g class="relationship" transform="translate(-98.46435680628936 226.96390707585437) rotate(356.66355601893156)"><path class="outline" fill="#A5ABB6" stroke="none" d="M 24.018736134675446,-6.953439040707552 L 24.277555179777966,-5.987513214418485 A 136.96666279711957 136.96666279711957 0 0 1 32.63762017782646,-7.9489087754865295 L 32.43983835760275,-8.929154842343706 A 137.96666279711957 137.96666279711957 0 0 0 24.018736134675446,-6.953439040707552 Z M 83.2194277450412,-9.639751125597797 L 83.0491526132597,-8.654354566086454 A 136.96666279711957 136.96666279711957 0 0 1 91.46082780238174,-6.9276583474998015 L 90.76576030715674,-4.009288738097726 L 98.3862014735241,-5.792229126875115 L 92.38758446268176,-10.81881782670257 L 91.69251696745675,-7.900448217300494 A 137.96666279711957 137.96666279711957 0 0 0 83.2194277450412,-9.639751125597797"/><text text-anchor="middle" pointer-events="none" font-size="8px" fill="#000000" x="57.803651879669715" y="-8.141081366917916" font-family="sans-serif">CONNECTS</text></g><g class="relationship" transform="translate(24.0336048369533 219.82254015753904) rotate(239.21384494777305)"><path class="outline" fill="#A5ABB6" stroke="none" d="M 24.018736134675446,-6.953439040707552 L 24.277555179777966,-5.987513214418485 A 130.3247655970507 130.3247655970507 0 0 1 30.985500802161607,-7.595904670525897 L 30.778152754084502,-8.574171907511072 A 131.3247655970507 131.3247655970507 0 0 0 24.018736134675446,-6.953439040707552 Z M 81.53655756805267,-9.30332130117037 L 81.35739508566584,-8.319501803038207 A 130.3247655970507 130.3247655970507 0 0 1 88.1087726935082,-6.904454826694345 L 87.41587247632862,-3.9855698873669176 L 95.03498758813546,-5.774168476496548 L 89.03263964974764,-10.79630141246425 L 88.33973943256805,-7.8774164731368215 A 131.3247655970507 131.3247655970507 0 0 0 81.53655756805267,-9.30332130117037"/><text text-anchor="middle" pointer-events="none" font-size="8px" fill="#000000" x="56.12897002931249" y="-7.914725767051124" transform="rotate(180 56.12897002931249 -10.914725767051124)" font-family="sans-serif">CONNECTS</text></g><g class="relationship" transform="translate(-37.058558366801016 117.28315582626092) rotate(419.21384494777305)"><path class="outline" fill="#A5ABB6" stroke="none" d="M 24.018736134675446,-6.953439040707552 L 24.277555179777966,-5.987513214418485 A 130.3247655970507 130.3247655970507 0 0 1 30.985500802161607,-7.595904670525897 L 30.778152754084502,-8.574171907511072 A 131.3247655970507 131.3247655970507 0 0 0 24.018736134675446,-6.953439040707552 Z M 81.53655756805267,-9.30332130117037 L 81.35739508566584,-8.319501803038207 A 130.3247655970507 130.3247655970507 0 0 1 88.1087726935082,-6.904454826694345 L 87.41587247632862,-3.9855698873669176 L 95.03498758813546,-5.774168476496548 L 89.03263964974764,-10.79630141246425 L 88.33973943256805,-7.8774164731368215 A 131.3247655970507 131.3247655970507 0 0 0 81.53655756805267,-9.30332130117037"/><text text-anchor="middle" pointer-events="none" font-size="8px" fill="#000000" x="56.12897002931249" y="-7.914725767051124" font-family="sans-serif">CONNECTS</text></g><g class="relationship" transform="translate(298.8737245854669 9.15559383004895) rotate(248.01650481126478)"><path class="outline" fill="#A5ABB6" stroke="none" d="M 24.018736134675446,-6.953439040707552 L 24.277555179777966,-5.987513214418485 A 134.55360549102562 134.55360549102562 0 0 1 32.036771361546144,-7.822026864581744 L 31.835618672937397,-8.801586763651443 A 135.55360549102562 135.55360549102562 0 0 0 24.018736134675446,-6.953439040707552 Z M 82.60792271402406,-9.518820524543315 L 82.43452023047658,-8.53396948062877 A 134.55360549102562 134.55360549102562 0 0 1 90.24246029997809,-6.919364897728925 L 89.54816743465635,-4.000810903511354 L 97.16813509737271,-5.785773877681134 L 91.16818412040708,-10.810770223352351 L 90.47389125508533,-7.892216229134781 A 135.55360549102562 135.55360549102562 0 0 0 82.60792271402406,-9.518820524543315"/><text text-anchor="middle" pointer-events="none" font-size="8px" fill="#000000" x="57.19494961359611" y="-8.058842688805214" transform="rotate(180 57.19494961359611 -11.058842688805214)" font-family="sans-serif">CONNECTS</text></g><g class="relationship" transform="translate(253.39543763894397 -103.50053869425037) rotate(428.0165048112648)"><path class="outline" fill="#A5ABB6" stroke="none" d="M 24.018736134675446,-6.953439040707552 L 24.277555179777966,-5.987513214418485 A 134.55360549102562 134.55360549102562 0 0 1 32.036771361546144,-7.822026864581744 L 31.835618672937397,-8.801586763651443 A 135.55360549102562 135.55360549102562 0 0 0 24.018736134675446,-6.953439040707552 Z M 82.60792271402406,-9.518820524543315 L 82.43452023047658,-8.53396948062877 A 134.55360549102562 134.55360549102562 0 0 1 90.24246029997809,-6.919364897728925 L 89.54816743465635,-4.000810903511354 L 97.16813509737271,-5.785773877681134 L 91.16818412040708,-10.810770223352351 L 90.47389125508533,-7.892216229134781 A 135.55360549102562 135.55360549102562 0 0 0 82.60792271402406,-9.518820524543315"/><text text-anchor="middle" pointer-events="none" font-size="8px" fill="#000000" x="57.19494961359611" y="-8.058842688805214" font-family="sans-serif">CONNECTS</text></g><g class="relationship" transform="translate(253.39543763894397 -103.50053869425037) rotate(189.79503550685791)"><path class="outline" fill="#A5ABB6" stroke="none" d="M 24.018736134675446,-6.953439040707552 L 24.277555179777966,-5.987513214418485 A 138.33829337651568 138.33829337651568 0 0 1 32.97945329282465,-8.020374044241294 L 32.78353727985194,-9.000994723128343 A 139.33829337651568 139.33829337651568 0 0 0 24.018736134675446,-6.953439040707552 Z M 83.56707554149166,-9.707869246598989 L 83.39852937374557,-8.72217548617536 A 138.33829337651568 138.33829337651568 0 0 1 92.15363747216688,-6.932305069572266 L 91.45813596242343,-4.014038863424416 L 99.07884220480244,-5.795845914528835 L 93.08097281849149,-10.8233266777694 L 92.38547130874804,-7.90506047162155 A 139.33829337651568 139.33829337651568 0 0 0 83.56707554149166,-9.707869246598989"/><text text-anchor="middle" pointer-events="none" font-size="8px" fill="#000000" x="58.14978670055954" y="-8.187828340060037" transform="rotate(180 58.14978670055954 -11.187828340060037)" font-family="sans-serif">CONNECTS</text></g><g class="relationship" transform="translate(131.79652312035998 -124.49346797667287) rotate(369.7950355068579)"><path class="outline" fill="#A5ABB6" stroke="none" d="M 24.018736134675446,-6.953439040707552 L 24.277555179777966,-5.987513214418485 A 138.33829337651568 138.33829337651568 0 0 1 32.97945329282465,-8.020374044241294 L 32.78353727985194,-9.000994723128343 A 139.33829337651568 139.33829337651568 0 0 0 24.018736134675446,-6.953439040707552 Z M 83.56707554149166,-9.707869246598989 L 83.39852937374557,-8.72217548617536 A 138.33829337651568 138.33829337651568 0 0 1 92.15363747216688,-6.932305069572266 L 91.45813596242343,-4.014038863424416 L 99.07884220480244,-5.795845914528835 L 93.08097281849149,-10.8233266777694 L 92.38547130874804,-7.90506047162155 A 139.33829337651568 139.33829337651568 0 0 0 83.56707554149166,-9.707869246598989"/><text text-anchor="middle" pointer-events="none" font-size="8px" fill="#000000" x="58.14978670055954" y="-8.187828340060037" font-family="sans-serif">CONNECTS</text></g><g class="relationship" transform="translate(297.8263460972591 234.097946179686) rotate(463.83003454556126)"><path class="outline" fill="#A5ABB6" stroke="none" d="M 24.018736134675446,-6.953439040707552 L 24.277555179777966,-5.987513214418485 A 115.4684108256002 115.4684108256002 0 0 1 27.312474791863366,-6.756773450306639 L 27.07993929557204,-7.729361360453865 A 116.4684108256002 116.4684108256002 0 0 0 24.018736134675446,-6.953439040707552 Z M 77.77495561196305,-8.503429908292247 L 77.57222272984144,-7.524195830807869 A 115.4684108256002 115.4684108256002 0 0 1 80.62921389779086,-6.847953742929226 L 79.9415911609906,-3.927821045287677 L 87.5574606484212,-5.7301894733355345 L 81.54604421352455,-10.741464006451292 L 80.85842147672429,-7.821331308809743 A 116.4684108256002 116.4684108256002 0 0 0 77.77495561196305,-8.503429908292247"/><text text-anchor="middle" pointer-events="none" font-size="8px" fill="#000000" x="52.392449216704385" y="-7.40848747031761" transform="rotate(180 52.392449216704385 -10.40848747031761)" font-family="sans-serif">CONNECTS</text></g><g class="relationship" transform="translate(271.07942719630597 342.745999862839) rotate(283.83003454556126)"><path class="outline" fill="#A5ABB6" stroke="none" d="M 24.018736134675446,-6.953439040707552 L 24.277555179777966,-5.987513214418485 A 115.4684108256002 115.4684108256002 0 0 1 27.312474791863366,-6.756773450306639 L 27.07993929557204,-7.729361360453865 A 116.4684108256002 116.4684108256002 0 0 0 24.018736134675446,-6.953439040707552 Z M 77.77495561196305,-8.503429908292247 L 77.57222272984144,-7.524195830807869 A 115.4684108256002 115.4684108256002 0 0 1 80.62921389779086,-6.847953742929226 L 79.9415911609906,-3.927821045287677 L 87.5574606484212,-5.7301894733355345 L 81.54604421352455,-10.741464006451292 L 80.85842147672429,-7.821331308809743 A 116.4684108256002 116.4684108256002 0 0 0 77.77495561196305,-8.503429908292247"/><text text-anchor="middle" pointer-events="none" font-size="8px" fill="#000000" x="52.392449216704385" y="-7.40848747031761" font-family="sans-serif">CONNECTS</text></g><g class="relationship" transform="translate(297.8263460972591 234.097946179686) rotate(347.77682247881603)"><path class="outline" fill="#A5ABB6" stroke="none" d="M 24.018736134675446,-6.953439040707552 L 24.277555179777966,-5.987513214418485 A 107.74769690281 107.74769690281 0 0 1 25.418975396650783,-6.286666837421663 L 25.17074980504827,-7.255369090786232 A 108.74769690281 108.74769690281 0 0 0 24.018736134675446,-6.953439040707552 Z M 75.82059855902762,-8.054814762970182 L 75.60306855123342,-7.0787611293469865 A 107.74769690281 107.74769690281 0 0 1 76.75336138469429,-6.815779382964307 L 76.0687439621229,-3.8949406361808254 L 83.68275469761765,-5.705145188094966 L 77.66618461478949,-10.710231045342283 L 76.9815671922181,-7.789392298558801 A 108.74769690281 108.74769690281 0 0 0 75.82059855902762,-8.054814762970182"/><text text-anchor="middle" pointer-events="none" font-size="8px" fill="#000000" x="50.45636700491848" y="-7.145445737423174" font-family="sans-serif">CONNECTS</text></g><g class="relationship" transform="translate(403.4005759854645 211.2272821101168) rotate(527.776822478816)"><path class="outline" fill="#A5ABB6" stroke="none" d="M 24.018736134675446,-6.953439040707552 L 24.277555179777966,-5.987513214418485 A 107.74769690281 107.74769690281 0 0 1 25.418975396650783,-6.286666837421663 L 25.17074980504827,-7.255369090786232 A 108.74769690281 108.74769690281 0 0 0 24.018736134675446,-6.953439040707552 Z M 75.82059855902762,-8.054814762970182 L 75.60306855123342,-7.0787611293469865 A 107.74769690281 107.74769690281 0 0 1 76.75336138469429,-6.815779382964307 L 76.0687439621229,-3.8949406361808254 L 83.68275469761765,-5.705145188094966 L 77.66618461478949,-10.710231045342283 L 76.9815671922181,-7.789392298558801 A 108.74769690281 108.74769690281 0 0 0 75.82059855902762,-8.054814762970182"/><text text-anchor="middle" pointer-events="none" font-size="8px" fill="#000000" x="50.45636700491848" y="-7.145445737423174" transform="rotate(180 50.45636700491848 -10.145445737423174)" font-family="sans-serif">CONNECTS</text></g><g class="relationship" transform="translate(20.961571799226636 -65.74522347301703) rotate(332.0741017285875)"><path class="outline" fill="#A5ABB6" stroke="none" d="M 24.018736134675446,-6.953439040707552 L 24.277555179777966,-5.987513214418485 A 142.38969562261633 142.38969562261633 0 0 1 33.9903295168866,-8.228828309381328 L 33.79972309275105,-9.210494846998984 A 143.38969562261633 143.38969562261633 0 0 0 24.018736134675446,-6.953439040707552 Z M 84.59417392454068,-9.906587469038442 L 84.43053975550644,-8.920066380199245 A 142.38969562261633 142.38969562261633 0 0 1 94.20108552175978,-6.945752801242488 L 93.504327968963,-4.027786229703219 L 101.12580044748421,-5.806312939973203 L 95.1300955921555,-10.83637489662818 L 94.43333803935872,-7.918408325088912 A 143.38969562261633 143.38969562261633 0 0 0 84.59417392454068,-9.906587469038442"/><text text-anchor="middle" pointer-events="none" font-size="8px" fill="#000000" x="59.17272831220846" y="-8.325908801524918" font-family="sans-serif">CONNECTS</text></g><g class="relationship" transform="translate(131.79652312035998 -124.49346797667287) rotate(512.0741017285875)"><path class="outline" fill="#A5ABB6" stroke="none" d="M 24.018736134675446,-6.953439040707552 L 24.277555179777966,-5.987513214418485 A 142.38969562261633 142.38969562261633 0 0 1 33.9903295168866,-8.228828309381328 L 33.79972309275105,-9.210494846998984 A 143.38969562261633 143.38969562261633 0 0 0 24.018736134675446,-6.953439040707552 Z M 84.59417392454068,-9.906587469038442 L 84.43053975550644,-8.920066380199245 A 142.38969562261633 142.38969562261633 0 0 1 94.20108552175978,-6.945752801242488 L 93.504327968963,-4.027786229703219 L 101.12580044748421,-5.806312939973203 L 95.1300955921555,-10.83637489662818 L 94.43333803935872,-7.918408325088912 A 143.38969562261633 143.38969562261633 0 0 0 84.59417392454068,-9.906587469038442"/><text text-anchor="middle" pointer-events="none" font-size="8px" fill="#000000" x="59.17272831220846" y="-8.325908801524918" transform="rotate(180 59.17272831220846 -11.325908801524918)" font-family="sans-serif">CONNECTS</text></g><g class="relationship" transform="translate(20.961571799226636 -65.74522347301703) rotate(244.36413466439268)"><path class="outline" fill="#A5ABB6" stroke="none" d="M 24.018736134675446,-6.953439040707552 L 24.277555179777966,-5.987513214418485 A 113.47645560703351 113.47645560703351 0 0 1 26.822801349209033,-6.638027990370361 L 26.586412033302896,-7.60968641354458 A 114.47645560703351 114.47645560703351 0 0 0 24.018736134675446,-6.953439040707552 Z M 77.27074263706137,-8.390162927721718 L 77.06438300223354,-7.411686713849505 A 113.47645560703351 113.47645560703351 0 0 1 79.62845189860441,-6.839849122046801 L 78.94158618629399,-3.919538266460995 L 86.55698818035636,-5.723880935920134 L 80.54427284835162,-10.733596929494544 L 79.8574071360412,-7.8132860739087375 A 114.47645560703351 114.47645560703351 0 0 0 77.27074263706137,-8.390162927721718"/><text text-anchor="middle" pointer-events="none" font-size="8px" fill="#000000" x="51.89253351546112" y="-7.340618902654029" transform="rotate(180 51.89253351546112 -10.340618902654029)" font-family="sans-serif">CONNECTS</text></g><g class="relationship" transform="translate(-27.016266815435937 -165.7220454298233) rotate(424.3641346643927)"><path class="outline" fill="#A5ABB6" stroke="none" d="M 24.018736134675446,-6.953439040707552 L 24.277555179777966,-5.987513214418485 A 113.47645560703351 113.47645560703351 0 0 1 26.822801349209033,-6.638027990370361 L 26.586412033302896,-7.60968641354458 A 114.47645560703351 114.47645560703351 0 0 0 24.018736134675446,-6.953439040707552 Z M 77.27074263706137,-8.390162927721718 L 77.06438300223354,-7.411686713849505 A 113.47645560703351 113.47645560703351 0 0 1 79.62845189860441,-6.839849122046801 L 78.94158618629399,-3.919538266460995 L 86.55698818035636,-5.723880935920134 L 80.54427284835162,-10.733596929494544 L 79.8574071360412,-7.8132860739087375 A 114.47645560703351 114.47645560703351 0 0 0 77.27074263706137,-8.390162927721718"/><text text-anchor="middle" pointer-events="none" font-size="8px" fill="#000000" x="51.89253351546112" y="-7.340618902654029" font-family="sans-serif">CONNECTS</text></g><g class="relationship" transform="translate(20.961571799226636 -65.74522347301703) rotate(505.15486530322573)"><path class="outline" fill="#A5ABB6" stroke="none" d="M 24.018736134675446,-6.953439040707552 L 24.277555179777966,-5.987513214418485 A 144.54689739036536 144.54689739036536 0 0 1 34.52927489772847,-8.338296922689324 L 34.34137899178033,-9.320485870157114 A 145.54689739036536 145.54689739036536 0 0 0 24.018736134675446,-6.953439040707552 Z M 85.14121592641062,-10.010963242776342 L 84.98008455767642,-9.024030275442755 A 144.54689739036536 144.54689739036536 0 0 1 95.29190950842614,-6.9527486906305755 L 94.5944985301166,-4.034938222602655 L 102.21636909687622,-5.811758152579604 L 96.22179081283889,-10.843162648001137 L 95.52437983452934,-7.925352179973216 A 145.54689739036536 145.54689739036536 0 0 0 85.14121592641062,-10.010963242776342"/><text text-anchor="middle" pointer-events="none" font-size="8px" fill="#000000" x="59.717732692681786" y="-8.399432768623171" transform="rotate(180 59.717732692681786 -11.399432768623171)" font-family="sans-serif">CONNECTS</text></g><g class="relationship" transform="translate(-82.88271536937742 6.549821056653836) rotate(325.15486530322573)"><path class="outline" fill="#A5ABB6" stroke="none" d="M 24.018736134675446,-6.953439040707552 L 24.277555179777966,-5.987513214418485 A 144.54689739036536 144.54689739036536 0 0 1 34.52927489772847,-8.338296922689324 L 34.34137899178033,-9.320485870157114 A 145.54689739036536 145.54689739036536 0 0 0 24.018736134675446,-6.953439040707552 Z M 85.14121592641062,-10.010963242776342 L 84.98008455767642,-9.024030275442755 A 144.54689739036536 144.54689739036536 0 0 1 95.29190950842614,-6.9527486906305755 L 94.5944985301166,-4.034938222602655 L 102.21636909687622,-5.811758152579604 L 96.22179081283889,-10.843162648001137 L 95.52437983452934,-7.925352179973216 A 145.54689739036536 145.54689739036536 0 0 0 85.14121592641062,-10.010963242776342"/><text text-anchor="middle" pointer-events="none" font-size="8px" fill="#000000" x="59.717732692681786" y="-8.399432768623171" font-family="sans-serif">CONNECTS</text></g><g class="relationship" transform="translate(-37.058558366801016 117.28315582626092) rotate(247.51903408482622)"><path class="outline" fill="#A5ABB6" stroke="none" d="M 24.018736134675446,-6.953439040707552 L 24.277555179777966,-5.987513214418485 A 131.28067086294368 131.28067086294368 0 0 1 31.222936884723246,-7.64745496123399 L 31.01702267061596,-8.626025008000482 A 132.28067086294368 132.28067086294368 0 0 0 24.018736134675446,-6.953439040707552 Z M 81.7787031308537,-9.352448794232401 L 81.60087510863055,-8.368387213581997 A 131.28067086294368 131.28067086294368 0 0 1 88.59091209473117,-6.907867934984558 L 87.89769308139772,-3.9890586915510315 L 95.51700349829831,-5.7768251111120925 L 89.5152041125091,-10.799613592895927 L 88.82198509917565,-7.880804349462401 A 132.28067086294368 132.28067086294368 0 0 0 81.7787031308537,-9.352448794232401"/><text text-anchor="middle" pointer-events="none" font-size="8px" fill="#000000" x="56.369842057934285" y="-7.947302007775676" transform="rotate(180 56.369842057934285 -10.947302007775676)" font-family="sans-serif">CONNECTS</text></g><g class="relationship" transform="translate(-82.88271536937742 6.549821056653836) rotate(482.5904860928463)"><path class="outline" fill="#A5ABB6" stroke="none" d="M 24.018736134675446,-6.953439040707552 L 24.277555179777966,-5.987513214418485 A 142.75867290892188 142.75867290892188 0 0 1 34.08247977476536,-8.24762517703428 L 33.892342543490315,-9.229382699685914 A 143.75867290892188 143.75867290892188 0 0 0 24.018736134675446,-6.953439040707552 Z M 84.68773463072296,-9.924508760019847 L 84.52453393073166,-8.93791586955166 A 142.75867290892188 142.75867290892188 0 0 1 94.38763368163512,-6.946957381617835 L 93.69076361923359,-4.029017677626596 L 101.31230466801495,-5.8072505200127935 L 95.31679376483717,-10.837543653606154 L 94.61992370243564,-7.919603949614915 A 143.75867290892188 143.75867290892188 0 0 0 84.68773463072296,-9.924508760019847"/><text text-anchor="middle" pointer-events="none" font-size="8px" fill="#000000" x="59.265932235990675" y="-8.338484573813787" transform="rotate(180 59.265932235990675 -11.338484573813787)" font-family="sans-serif">CONNECTS</text></g><g class="relationship" transform="translate(-150.55008926430338 112.39706334603872) rotate(302.5904860928463)"><path class="outline" fill="#A5ABB6" stroke="none" d="M 24.018736134675446,-6.953439040707552 L 24.277555179777966,-5.987513214418485 A 142.75867290892188 142.75867290892188 0 0 1 34.08247977476536,-8.24762517703428 L 33.892342543490315,-9.229382699685914 A 143.75867290892188 143.75867290892188 0 0 0 24.018736134675446,-6.953439040707552 Z M 84.68773463072296,-9.924508760019847 L 84.52453393073166,-8.93791586955166 A 142.75867290892188 142.75867290892188 0 0 1 94.38763368163512,-6.946957381617835 L 93.69076361923359,-4.029017677626596 L 101.31230466801495,-5.8072505200127935 L 95.31679376483717,-10.837543653606154 L 94.61992370243564,-7.919603949614915 A 143.75867290892188 143.75867290892188 0 0 0 84.68773463072296,-9.924508760019847"/><text text-anchor="middle" pointer-events="none" font-size="8px" fill="#000000" x="59.265932235990675" y="-8.338484573813787" font-family="sans-serif">CONNECTS</text></g><g class="relationship" transform="translate(-82.88271536937742 6.549821056653836) rotate(427.5190340848262)"><path class="outline" fill="#A5ABB6" stroke="none" d="M 24.018736134675446,-6.953439040707552 L 24.277555179777966,-5.987513214418485 A 131.28067086294368 131.28067086294368 0 0 1 31.222936884723246,-7.64745496123399 L 31.01702267061596,-8.626025008000482 A 132.28067086294368 132.28067086294368 0 0 0 24.018736134675446,-6.953439040707552 Z M 81.7787031308537,-9.352448794232401 L 81.60087510863055,-8.368387213581997 A 131.28067086294368 131.28067086294368 0 0 1 88.59091209473117,-6.907867934984558 L 87.89769308139772,-3.9890586915510315 L 95.51700349829831,-5.7768251111120925 L 89.5152041125091,-10.799613592895927 L 88.82198509917565,-7.880804349462401 A 132.28067086294368 132.28067086294368 0 0 0 81.7787031308537,-9.352448794232401"/><text text-anchor="middle" pointer-events="none" font-size="8px" fill="#000000" x="56.369842057934285" y="-7.947302007775676" font-family="sans-serif">CONNECTS</text></g><g class="relationship" transform="translate(-98.46435680628936 226.96390707585437) rotate(245.55194439220486)"><path class="outline" fill="#A5ABB6" stroke="none" d="M 24.018736134675446,-6.953439040707552 L 24.277555179777966,-5.987513214418485 A 143.1995057269154 143.1995057269154 0 0 1 34.19259378562383,-8.270042807878724 L 34.00301407591925,-9.251908141653331 A 144.1995057269154 144.1995057269154 0 0 0 24.018736134675446,-6.953439040707552 Z M 84.79951975974322,-9.945882726684147 L 84.63683400620812,-8.959204792606016 A 143.1995057269154 143.1995057269154 0 0 1 94.61052763792071,-6.948392210297266 L 93.91352356047237,-4.030484515386344 L 101.53514627228759,-5.808367312069598 L 95.53986640785185,-10.83893580351183 L 94.8428623304035,-7.921028108600908 A 144.1995057269154 144.1995057269154 0 0 0 84.79951975974322,-9.945882726684147"/><text text-anchor="middle" pointer-events="none" font-size="8px" fill="#000000" x="59.37729563270565" y="-8.353509432138537" transform="rotate(180 59.37729563270565 -11.353509432138537)" font-family="sans-serif">CONNECTS</text></g><g class="relationship" transform="translate(-150.55008926430338 112.39706334603872) rotate(425.55194439220486)"><path class="outline" fill="#A5ABB6" stroke="none" d="M 24.018736134675446,-6.953439040707552 L 24.277555179777966,-5.987513214418485 A 143.1995057269154 143.1995057269154 0 0 1 34.19259378562383,-8.270042807878724 L 34.00301407591925,-9.251908141653331 A 144.1995057269154 144.1995057269154 0 0 0 24.018736134675446,-6.953439040707552 Z M 84.79951975974322,-9.945882726684147 L 84.63683400620812,-8.959204792606016 A 143.1995057269154 143.1995057269154 0 0 1 94.61052763792071,-6.948392210297266 L 93.91352356047237,-4.030484515386344 L 101.53514627228759,-5.808367312069598 L 95.53986640785185,-10.83893580351183 L 94.8428623304035,-7.921028108600908 A 144.1995057269154 144.1995057269154 0 0 0 84.79951975974322,-9.945882726684147"/><text text-anchor="middle" pointer-events="none" font-size="8px" fill="#000000" x="59.37729563270565" y="-8.353509432138537" font-family="sans-serif">CONNECTS</text></g><g class="relationship" transform="translate(-98.46435680628936 226.96390707585437) rotate(453.61372946298513)"><path class="outline" fill="#A5ABB6" stroke="none" d="M 24.018736134675446,-6.953439040707552 L 24.277555179777966,-5.987513214418485 A 110.97071579946405 110.97071579946405 0 0 1 26.207928046366263,-6.486212943205402 L 25.96650433707537,-7.456632745451941 A 111.97071579946405 111.97071579946405 0 0 0 24.018736134675446,-6.953439040707552 Z M 76.63647618405132,-8.245306515673619 L 76.42537110949729,-7.267843141680743 A 110.97071579946405 110.97071579946405 0 0 1 78.37032955000647,-6.829462612637165 L 77.6844340101818,-3.9089237396809065 L 85.2992361768752,-5.715796165205632 L 79.28485693643938,-10.723514443245511 L 78.59896139661471,-7.802975570289252 A 111.97071579946405 111.97071579946405 0 0 0 76.63647618405132,-8.245306515673619"/><text text-anchor="middle" pointer-events="none" font-size="8px" fill="#000000" x="51.26406786906386" y="-7.25524830106113" transform="rotate(180 51.26406786906386 -10.25524830106113)" font-family="sans-serif">CONNECTS</text></g><g class="relationship" transform="translate(-105.37474443913905 336.38297074448843) rotate(273.61372946298513)"><path class="outline" fill="#A5ABB6" stroke="none" d="M 24.018736134675446,-6.953439040707552 L 24.277555179777966,-5.987513214418485 A 110.97071579946405 110.97071579946405 0 0 1 26.207928046366263,-6.486212943205402 L 25.96650433707537,-7.456632745451941 A 111.97071579946405 111.97071579946405 0 0 0 24.018736134675446,-6.953439040707552 Z M 76.63647618405132,-8.245306515673619 L 76.42537110949729,-7.267843141680743 A 110.97071579946405 110.97071579946405 0 0 1 78.37032955000647,-6.829462612637165 L 77.6844340101818,-3.9089237396809065 L 85.2992361768752,-5.715796165205632 L 79.28485693643938,-10.723514443245511 L 78.59896139661471,-7.802975570289252 A 111.97071579946405 111.97071579946405 0 0 0 76.63647618405132,-8.245306515673619"/><text text-anchor="middle" pointer-events="none" font-size="8px" fill="#000000" x="51.26406786906386" y="-7.25524830106113" font-family="sans-serif">CONNECTS</text></g></g><g class="layer nodes"><g class="node" transform="translate(134.08031997211086,158.62053524117442)"><circle class="outline" cx="0" cy="0" r="25" fill="#68BDF6" stroke="#5CA8DB" stroke-width="2px"/><text text-anchor="middle" pointer-events="none" font-family="sans-serif" dy="1.5625" font-size="25" fill="#FFFFFF"/><text text-anchor="middle" pointer-events="none" y="5" font-size="10px" fill="#FFFFFF" font-family="sans-serif"> 0</text></g><g class="node" transform="translate(255.12444863146658,127.43591523202275)"><circle class="outline" cx="0" cy="0" r="25" fill="#68BDF6" stroke="#5CA8DB" stroke-width="2px"/><text text-anchor="middle" pointer-events="none" font-family="sans-serif" dy="1.5625" font-size="25" fill="#FFFFFF"/><text text-anchor="middle" pointer-events="none" y="5" font-size="10px" fill="#FFFFFF" font-family="sans-serif"> 1</text></g><g class="node" transform="translate(88.0945799477641,38.75871803407094)"><circle class="outline" cx="0" cy="0" r="25" fill="#68BDF6" stroke="#5CA8DB" stroke-width="2px"/><text text-anchor="middle" pointer-events="none" font-family="sans-serif" dy="1.5625" font-size="25" fill="#FFFFFF"/><text text-anchor="middle" pointer-events="none" y="5" font-size="10px" fill="#FFFFFF" font-family="sans-serif"> 2</text></g><g class="node" transform="translate(24.0336048369533,219.82254015753904)"><circle class="outline" cx="0" cy="0" r="25" fill="#68BDF6" stroke="#5CA8DB" stroke-width="2px"/><text text-anchor="middle" pointer-events="none" font-family="sans-serif" dy="1.5625" font-size="25" fill="#FFFFFF"/><text text-anchor="middle" pointer-events="none" y="5" font-size="10px" fill="#FFFFFF" font-family="sans-serif"> 469</text></g><g class="node" transform="translate(298.8737245854669,9.15559383004895)"><circle class="outline" cx="0" cy="0" r="25" fill="#68BDF6" stroke="#5CA8DB" stroke-width="2px"/><text text-anchor="middle" pointer-events="none" font-family="sans-serif" dy="1.5625" font-size="25" fill="#FFFFFF"/><text text-anchor="middle" pointer-events="none" y="5" font-size="10px" fill="#FFFFFF" font-family="sans-serif"> 6</text></g><g class="node" transform="translate(253.39543763894397,-103.50053869425037)"><circle class="outline" cx="0" cy="0" r="25" fill="#68BDF6" stroke="#5CA8DB" stroke-width="2px"/><text text-anchor="middle" pointer-events="none" font-family="sans-serif" dy="1.5625" font-size="25" fill="#FFFFFF"/><text text-anchor="middle" pointer-events="none" y="5" font-size="10px" fill="#FFFFFF" font-family="sans-serif"> 5</text></g><g class="node" transform="translate(297.8263460972591,234.097946179686)"><circle class="outline" cx="0" cy="0" r="25" fill="#68BDF6" stroke="#5CA8DB" stroke-width="2px"/><text text-anchor="middle" pointer-events="none" font-family="sans-serif" dy="1.5625" font-size="25" fill="#FFFFFF"/><text text-anchor="middle" pointer-events="none" y="5" font-size="10px" fill="#FFFFFF" font-family="sans-serif"> 385</text></g><g class="node" transform="translate(271.07942719630597,342.745999862839)"><circle class="outline" cx="0" cy="0" r="25" fill="#68BDF6" stroke="#5CA8DB" stroke-width="2px"/><text text-anchor="middle" pointer-events="none" font-family="sans-serif" dy="1.5625" font-size="25" fill="#FFFFFF"/><text text-anchor="middle" pointer-events="none" y="5" font-size="10px" fill="#FFFFFF" font-family="sans-serif"> 384</text></g><g class="node" transform="translate(403.4005759854645,211.2272821101168)"><circle class="outline" cx="0" cy="0" r="25" fill="#68BDF6" stroke="#5CA8DB" stroke-width="2px"/><text text-anchor="middle" pointer-events="none" font-family="sans-serif" dy="1.5625" font-size="25" fill="#FFFFFF"/><text text-anchor="middle" pointer-events="none" y="5" font-size="10px" fill="#FFFFFF" font-family="sans-serif"> 386</text></g><g class="node" transform="translate(20.961571799226636,-65.74522347301703)"><circle class="outline" cx="0" cy="0" r="25" fill="#68BDF6" stroke="#5CA8DB" stroke-width="2px"/><text text-anchor="middle" pointer-events="none" font-family="sans-serif" dy="1.5625" font-size="25" fill="#FFFFFF"/><text text-anchor="middle" pointer-events="none" y="5" font-size="10px" fill="#FFFFFF" font-family="sans-serif"> 3</text></g><g class="node" transform="translate(131.79652312035998,-124.49346797667287)"><circle class="outline" cx="0" cy="0" r="25" fill="#68BDF6" stroke="#5CA8DB" stroke-width="2px"/><text text-anchor="middle" pointer-events="none" font-family="sans-serif" dy="1.5625" font-size="25" fill="#FFFFFF"/><text text-anchor="middle" pointer-events="none" y="5" font-size="10px" fill="#FFFFFF" font-family="sans-serif"> 4</text></g><g class="node" transform="translate(-27.016266815435937,-165.7220454298233)"><circle class="outline" cx="0" cy="0" r="25" fill="#68BDF6" stroke="#5CA8DB" stroke-width="2px"/><text text-anchor="middle" pointer-events="none" font-family="sans-serif" dy="1.5625" font-size="25" fill="#FFFFFF"/><text text-anchor="middle" pointer-events="none" y="5" font-size="10px" fill="#FFFFFF" font-family="sans-serif"> 419</text></g><g class="node" transform="translate(-82.88271536937742,6.549821056653836)"><circle class="outline" cx="0" cy="0" r="25" fill="#68BDF6" stroke="#5CA8DB" stroke-width="2px"/><text text-anchor="middle" pointer-events="none" font-family="sans-serif" dy="1.5625" font-size="25" fill="#FFFFFF"/><text text-anchor="middle" pointer-events="none" y="5" font-size="10px" fill="#FFFFFF" font-family="sans-serif"> 422</text></g><g class="node" transform="translate(-98.46435680628936,226.96390707585437)"><circle class="outline" cx="0" cy="0" r="25" fill="#68BDF6" stroke="#5CA8DB" stroke-width="2px"/><text text-anchor="middle" pointer-events="none" font-family="sans-serif" dy="1.5625" font-size="25" fill="#FFFFFF"/><text text-anchor="middle" pointer-events="none" y="5" font-size="10px" fill="#FFFFFF" font-family="sans-serif"> 380</text></g><g class="node" transform="translate(-150.55008926430338,112.39706334603872)"><circle class="outline" cx="0" cy="0" r="25" fill="#68BDF6" stroke="#5CA8DB" stroke-width="2px"/><text text-anchor="middle" pointer-events="none" font-family="sans-serif" dy="1.5625" font-size="25" fill="#FFFFFF"/><text text-anchor="middle" pointer-events="none" y="5" font-size="10px" fill="#FFFFFF" font-family="sans-serif"> 183</text></g><g class="node" transform="translate(-105.37474443913905,336.38297074448843)"><circle class="outline" cx="0" cy="0" r="25" fill="#68BDF6" stroke="#5CA8DB" stroke-width="2px"/><text text-anchor="middle" pointer-events="none" font-family="sans-serif" dy="1.5625" font-size="25" fill="#FFFFFF"/><text text-anchor="middle" pointer-events="none" y="5" font-size="10px" fill="#FFFFFF" font-family="sans-serif"> 379</text></g><g class="node" transform="translate(-37.058558366801016,117.28315582626092)"><circle class="outline" cx="0" cy="0" r="25" fill="#68BDF6" stroke="#5CA8DB" stroke-width="2px"/><text text-anchor="middle" pointer-events="none" font-family="sans-serif" dy="1.5625" font-size="25" fill="#FFFFFF"/><text text-anchor="middle" pointer-events="none" y="5" font-size="10px" fill="#FFFFFF" font-family="sans-serif"> 37415</text></g></g></svg>